# xmcd
# 
# Track frame offsets:
#     183
#     32140
#     55915
#     75838
#     107345
#     122198
#     166110
#     197883
# 
# Disc length: 2836
# 
# Revision: 8
# Processed by: cddbd v1.5.2PL0 Copyright (c) Steve Scherf et al.
# Submitted via: fre:ac v1.0.27
# 
DISCID=5a0b1208
DTITLE=Van Morrison - Astral Weeks
DYEAR=1968
DGENRE=Jazz-influenced Rock
TTITLE0=Astral Weeks
TTITLE1=Beside You
TTITLE2=Sweet Thing
TTITLE3=Cyprus Avenue
TTITLE4=The Way Young Lovers Do
TTITLE5=Madame George
TTITLE6=Ballerina
TTITLE7=Slim Slow Slider
EXTD=All songs written by Van Morrison - arranged and conducted by Larry Fallon.\nPrincipally recorded by Brooks Arthur at Century Sound Studios, New York US-NY, 1968-09-25 (tracks 1,2,4,6), 1968-10-01 (5), and 1968-10-15 (3,7,8).\nVan Morrison: rhythm guitar,
EXTD=keyboard, sax, vocals\nJay Berliner: guitar (ex 5]\nBarry Kornfeld: guitar (5]\nRichard Davis: bass\nConnie Kay: drums\nJohn Payne (ex 2,4,6): flute, soprano sax\nWarren Smith, Jr.: percussion, vibraphone\nUnknown flautist (2,4).\nProduced by Lewis 
EXTD=Merenstein.\nOriginally released as Warner Bros. LP WS 1768 (1968-11).\nCD: Warner Bros. 1768-2 (1990-10-25), UPC 075992717625.
EXTT0=
EXTT1=
EXTT2=
EXTT3=
EXTT4=
EXTT5=
EXTT6=
EXTT7=
PLAYORDER=
